<?xml version="1.0" encoding="UTF-8" standalone="no"?>
<svg width="866px" height="525px" viewBox="0 0 866 525" version="1.1" xmlns="http://www.w3.org/2000/svg" xmlns:xlink="http://www.w3.org/1999/xlink" xmlns:sketch="http://www.bohemiancoding.com/sketch/ns">
    <title>Untitled 2</title>
    <description>Created with Sketch (http://www.bohemiancoding.com/sketch)</description>
    <defs></defs>
    <g id="Page-1" stroke="none" stroke-width="1" fill="none" fill-rule="evenodd" sketch:type="MSPage">
        <path d="M17.0390625,269.460938 C17.0390625,269.460938 141.039062,-138.664065 442.1875,112.609373" id="Path-13" stroke="#E0E0E0" stroke-width="2" stroke-dasharray="12" sketch:type="MSShapeGroup"></path>
        <path d="M212.742188,472.726563 C212.742188,472.726563 345.263669,-175.14844 442.013672,113.453122" id="Path-14" stroke="#E0E0E0" stroke-width="2" stroke-dasharray="12" sketch:type="MSShapeGroup"></path>
        <path d="M538.851562,466.882812 C538.851562,466.882812 517.859371,-146.804689 441.226562,111.484375" id="Path-15" stroke="#E0E0E0" stroke-width="2" stroke-dasharray="12" sketch:type="MSShapeGroup"></path>
        <path d="M775.703125,410.5625 C775.703125,410.5625 616.384763,-153.957033 441.603516,113.300781" id="Path-16" stroke="#E0E0E0" stroke-width="2" stroke-dasharray="12" sketch:type="MSShapeGroup"></path>
        <path d="M833.46875,107.59375 C833.46875,107.59375 679.43555,-133.818356 441.951172,112.626954" id="Path-17" stroke="#E0E0E0" stroke-width="2" stroke-dasharray="12" sketch:type="MSShapeGroup"></path>
        <g id="person" sketch:type="MSLayerGroup" transform="translate(520.000000, 483.000000)" stroke="#FFFFFF">
            <path d="M24,22.3944797 L24,27.843 L34.018,31.421 C36.405,32.274 38,34.536 38,37.072 L38,40.843 L0,40.843 L0,37.072 C0,34.536 1.594,32.274 3.981,31.421 L14,27.843 L14,22.406 L14.0152897,22.4053792 C11.0178148,20.3332889 9,16.4496884 9,12 C9,5.374 13.477,0 19,0 C24.522,0 29,5.374 29,12 C29,16.4418983 26.9887951,20.3196891 24,22.3944797 Z" id="Path" sketch:type="MSShapeGroup"></path>
        </g>
        <g id="person-copy" sketch:type="MSLayerGroup" transform="translate(764.000000, 424.000000)" stroke="#FFFFFF" stroke-width="0.81">
            <path d="M19.5789474,18.1395286 L19.5789474,22.55283 L27.7515263,25.45101 C29.6988158,26.14194 31,27.97416 31,30.02832 L31,33.08283 L0,33.08283 L0,30.02832 C0,27.97416 1.30036842,26.14194 3.24765789,25.45101 L11.4210526,22.55283 L11.4210526,18.14886 L11.4335258,18.1483572 C8.9882173,16.469964 7.34210526,13.3242476 7.34210526,9.72 C7.34210526,4.35294 10.9943947,0 15.5,0 C20.0047895,0 23.6578947,4.35294 23.6578947,9.72 C23.6578947,13.3179376 22.017175,16.4589482 19.5789474,18.1395286 Z" id="Path" sketch:type="MSShapeGroup"></path>
        </g>
        <g id="person-copy-2" sketch:type="MSLayerGroup" transform="translate(833.000000, 120.000000)" stroke="#FFFFFF" stroke-width="0.84">
            <path d="M20.2105263,18.811363 L20.2105263,23.38812 L28.6467368,26.39364 C30.6568421,27.11016 32,29.01024 32,31.14048 L32,34.30812 L0,34.30812 L0,31.14048 C0,29.01024 1.34231579,27.11016 3.35242105,26.39364 L11.7894737,23.38812 L11.7894737,18.82104 L11.8023492,18.8205186 C9.27815979,17.0799627 7.57894737,13.8177383 7.57894737,10.08 C7.57894737,4.51416 11.3490526,1.77635684e-14 16,1.77635684e-14 C20.6501053,1.77635684e-14 24.4210526,4.51416 24.4210526,10.08 C24.4210526,13.8111946 22.7274064,17.0685388 20.2105263,18.811363 Z" id="Path" sketch:type="MSShapeGroup"></path>
        </g>
        <g id="person-copy-3" sketch:type="MSLayerGroup" transform="translate(194.000000, 483.000000)" stroke="#FFFFFF">
            <path d="M24,22.3944797 L24,27.843 L34.018,31.421 C36.405,32.274 38,34.536 38,37.072 L38,40.843 L0,40.843 L0,37.072 C0,34.536 1.594,32.274 3.981,31.421 L14,27.843 L14,22.406 L14.0152897,22.4053792 C11.0178148,20.3332889 9,16.4496884 9,12 C9,5.374 13.477,0 19,0 C24.522,0 29,5.374 29,12 C29,16.4418983 26.9887951,20.3196891 24,22.3944797 Z" id="Path" sketch:type="MSShapeGroup"></path>
        </g>
        <g id="person-copy-4" sketch:type="MSLayerGroup" transform="translate(1.000000, 290.000000)" stroke="#FFFFFF" stroke-width="0.8">
            <path d="M18.9473684,17.9155838 L18.9473684,22.2744 L26.8563158,25.1368 C28.7407895,25.8192 30,27.6288 30,29.6576 L30,32.6744 L0,32.6744 L0,29.6576 C0,27.6288 1.25842105,25.8192 3.14289474,25.1368 L11.0526316,22.2744 L11.0526316,17.9248 L11.0647024,17.9243034 C8.6982748,16.2666311 7.10526316,13.1597507 7.10526316,9.6 C7.10526316,4.2992 10.6397368,0 15,0 C19.3594737,0 22.8947368,4.2992 22.8947368,9.6 C22.8947368,13.1535186 21.3069435,16.2557513 18.9473684,17.9155838 Z" id="Path" sketch:type="MSShapeGroup"></path>
        </g>
        <g id="brower" sketch:type="MSLayerGroup" transform="translate(412.000000, 138.000000)" stroke="#101010" stroke-width="1.3">
            <path d="M54.7826087,46.8 L5.2173913,46.8 C2.33478261,46.8 0,44.4717 0,41.6 L0,5.2 C0,2.3283 2.33478261,0 5.2173913,0 L54.7826087,0 C57.6652174,0 60,2.3283 60,5.2 L60,41.6 C60,44.4717 57.6652174,46.8 54.7826087,46.8 Z" id="Path" sketch:type="MSShapeGroup"></path>
            <path d="M0,13 L60,13 L0,13 Z" id="Path" sketch:type="MSShapeGroup"></path>
            <path d="M10.4347826,6.5 C10.4347826,7.2176 9.85043478,7.8 9.13043478,7.8 C8.40913043,7.8 7.82608696,7.2176 7.82608696,6.5 C7.82608696,5.7811 8.40913043,5.2 9.13043478,5.2 C9.85043478,5.2 10.4347826,5.7811 10.4347826,6.5 L10.4347826,6.5 Z" id="Path" sketch:type="MSShapeGroup"></path>
            <path d="M18.2608696,6.5 C18.2608696,7.2176 17.6765217,7.8 16.9565217,7.8 C16.2352174,7.8 15.6521739,7.2176 15.6521739,6.5 C15.6521739,5.7811 16.2352174,5.2 16.9565217,5.2 C17.6765217,5.2 18.2608696,5.7811 18.2608696,6.5 L18.2608696,6.5 Z" id="Path" sketch:type="MSShapeGroup"></path>
            <path d="M26.0869565,6.5 C26.0869565,7.2176 25.5026087,7.8 24.7826087,7.8 C24.0613043,7.8 23.4782609,7.2176 23.4782609,6.5 C23.4782609,5.7811 24.0613043,5.2 24.7826087,5.2 C25.5026087,5.2 26.0869565,5.7811 26.0869565,6.5 L26.0869565,6.5 Z" id="Path" sketch:type="MSShapeGroup"></path>
        </g>
    </g>
</svg>