<?xml version="1.0" encoding="UTF-8" standalone="no"?>
<svg width="620px" height="243px" viewBox="0 0 620 243" version="1.1" xmlns="http://www.w3.org/2000/svg" xmlns:xlink="http://www.w3.org/1999/xlink" xmlns:sketch="http://www.bohemiancoding.com/sketch/ns">
    <title>Untitled</title>
    <description>Created with Sketch (http://www.bohemiancoding.com/sketch)</description>
    <defs></defs>
    <g id="Page-1" stroke="none" stroke-width="1" fill="none" fill-rule="evenodd" sketch:type="MSPage">
        <g id="photo" sketch:type="MSLayerGroup">
            <rect id="Rectangle-7" stroke="#979797" stroke-dasharray="1,3" sketch:type="MSShapeGroup" transform="translate(124.000000, 84.500000) rotate(-5.000000) translate(-124.000000, -84.500000) " x="6" y="10" width="236" height="149" rx="3"></rect>
            <g id="Path-+-Path-+-Path" transform="translate(123.878144, 80.386367) rotate(-7.000000) translate(-123.878144, -80.386367) translate(91.878144, 48.386367)" stroke="#848484" sketch:type="MSShapeGroup">
                <path d="M-2.84217094e-14,5.68434189e-14 L64.2356324,5.68434189e-14 L64.2356324,64.2356324 L-2.84217094e-14,64.2356324 L-2.84217094e-14,5.68434189e-14 Z" id="Path"></path>
                <path d="M25.1356823,8.37856075 C21.6585795,8.37856075 18.7973011,10.9298325 18.2652624,14.2575175 C17.7946666,14.0745856 17.2905565,13.9642679 16.7571215,13.9642679 C14.4432423,13.9642679 12.5678411,15.8410655 12.5678411,18.1535483 C12.5678411,20.4674275 14.4432423,22.3428287 16.7571215,22.3428287 L25.1356823,22.3428287 C28.9912166,22.3428287 32.1178162,19.2176255 32.1178162,15.3606947 C32.1178162,11.5051603 28.9912166,8.37856075 25.1356823,8.37856075 L25.1356823,8.37856075 Z" id="Path"></path>
                <path d="M8.37856075,47.4785109 C8.37856075,47.4785109 13.9642679,33.514243 20.9464019,33.514243 C27.9285358,33.514243 33.514243,41.8928038 33.514243,41.8928038 L41.9333001,27.4607329 C42.7725526,26.0210168 44.3142078,25.1356823 45.980145,25.1356823 C47.753607,25.1356823 49.3748585,26.1383167 50.1694254,27.726054 L60.0463521,47.4785109 L8.37856075,47.4785109 Z" id="Path"></path>
            </g>
        </g>
        <g id="photo-copy" sketch:type="MSLayerGroup" transform="translate(534.500000, 67.500000) rotate(14.000000) translate(-534.500000, -67.500000) translate(452.000000, 11.000000)">
            <rect id="Rectangle-7" stroke="#979797" stroke-dasharray="1,3" sketch:type="MSShapeGroup" transform="translate(82.645480, 56.318896) rotate(-5.000000) translate(-82.645480, -56.318896) " x="3.99897485" y="6.66495808" width="157.293011" height="99.3078754" rx="3"></rect>
            <g id="Path-+-Path-+-Path" transform="translate(82.750745, 53.733653) rotate(4.000000) translate(-82.750745, -53.733653) translate(61.250745, 32.233653)" stroke="#848484" sketch:type="MSShapeGroup">
                <path d="M1.0658141e-13,7.81597009e-14 L42.8127797,7.81597009e-14 L42.8127797,42.8127797 L1.0658141e-13,42.8127797 L1.0658141e-13,7.81597009e-14 Z" id="Path"></path>
                <path d="M16.7528269,5.58427562 C14.4353525,5.58427562 12.5283223,7.28468754 12.1737208,9.50257568 C11.8600707,9.38065232 11.5240834,9.30712603 11.1685512,9.30712603 C9.62636045,9.30712603 8.37641343,10.5580038 8.37641343,12.0992638 C8.37641343,13.6414546 9.62636045,14.8914016 11.1685512,14.8914016 L16.7528269,14.8914016 C19.3225243,14.8914016 21.4063899,12.8084668 21.4063899,10.2378386 C21.4063899,7.66814114 19.3225243,5.58427562 16.7528269,5.58427562 L16.7528269,5.58427562 Z" id="Path"></path>
                <path d="M5.58427562,31.6442285 C5.58427562,31.6442285 9.30712603,22.3371025 13.960689,22.3371025 C18.6142521,22.3371025 22.3371025,27.9213781 22.3371025,27.9213781 L27.9483688,18.3024633 C28.507727,17.3428986 29.5352337,16.7528269 30.6455739,16.7528269 C31.8275789,16.7528269 32.9081362,17.4210785 33.4377117,18.4792987 L40.0206419,31.6442285 L5.58427562,31.6442285 Z" id="Path"></path>
            </g>
        </g>
        <g id="photo-copy-2" sketch:type="MSLayerGroup" transform="translate(285.000000, 168.500000) rotate(2.000000) translate(-285.000000, -168.500000) translate(171.000000, 91.000000)">
            <rect id="Rectangle-7" stroke="#979797" stroke-dasharray="1,3" fill="#FFFFFF" sketch:type="MSShapeGroup" transform="translate(114.052473, 77.721241) rotate(-5.000000) translate(-114.052473, -77.721241) " x="5.51866803" y="9.19778005" width="217.067609" height="137.046923" rx="3"></rect>
            <g id="Path-+-Path-+-Path" transform="translate(113.940392, 73.937613) rotate(-5.000000) translate(-113.940392, -73.937613) translate(84.507496, 44.504716)" stroke="#848484" sketch:type="MSShapeGroup">
                <path d="M-7.10542736e-15,0 L59.0825219,0 L59.0825219,59.0825219 L-7.10542736e-15,59.0825219 L-7.10542736e-15,0 Z" id="Path"></path>
                <path d="M23.1192477,7.7064159 C19.9210851,7.7064159 17.2893441,10.0530195 16.7999867,13.113751 C16.367143,12.9454943 15.9034736,12.8440265 15.4128318,12.8440265 C13.2845766,12.8440265 11.5596238,14.5702637 11.5596238,16.6972344 C11.5596238,18.8254896 13.2845766,20.5504424 15.4128318,20.5504424 L23.1192477,20.5504424 C26.6654834,20.5504424 29.5412609,17.6759493 29.5412609,14.1284291 C29.5412609,10.5821934 26.6654834,7.7064159 23.1192477,7.7064159 L23.1192477,7.7064159 Z" id="Path"></path>
                <path d="M7.7064159,43.6696901 C7.7064159,43.6696901 12.8440265,30.8256636 19.2660397,30.8256636 C25.688053,30.8256636 30.8256636,38.5320795 30.8256636,38.5320795 L38.5693272,25.2577781 C39.3412531,23.933559 40.7592337,23.1192477 42.291526,23.1192477 C43.9227174,23.1192477 45.4139089,24.0414488 46.144734,25.5018146 L55.2293139,43.6696901 L7.7064159,43.6696901 Z" id="Path"></path>
            </g>
        </g>
    </g>
</svg>