<svg xmlns="http://www.w3.org/2000/svg" xmlns:xlink="http://www.w3.org/1999/xlink" version="1.1" id="Layer_1" x="0px" y="0px" width="32px" height="32px" viewBox="0 0 32 32" enable-background="new 0 0 32 32" xml:space="preserve">
<path id="star3-lat" d="M29.131,12.859c-0.268-0.826-1.035-1.382-1.902-1.382h-0.016l-7.15,0.056L17.91,4.717  c-0.264-0.831-1.035-1.396-1.906-1.396s-1.645,0.565-1.906,1.396l-2.157,6.816l-7.15-0.056H4.773c-0.868,0-1.636,0.556-1.904,1.382  c-0.27,0.831,0.029,1.737,0.74,2.246l5.815,4.158l-2.26,6.782c-0.276,0.828,0.017,1.739,0.723,2.25  c0.351,0.256,0.763,0.384,1.175,0.384c0.418,0,0.834-0.132,1.189-0.392l5.751-4.247l5.751,4.247c0.354,0.26,0.771,0.392,1.188,0.392  c0.412,0,0.826-0.128,1.178-0.384c0.704-0.513,0.997-1.424,0.721-2.25l-2.263-6.782l5.815-4.158  C29.104,14.598,29.4,13.69,29.131,12.859z M20.212,18.496l2.729,8.184l-6.94-5.125L9.06,26.68l2.729-8.184L4.77,13.479l8.627,0.065  L16,5.32l2.604,8.225l8.627-0.065L20.212,18.496z"/>
</svg>